<svg xmlns="http://www.w3.org/2000/svg" viewBox="0 0 512 512">
  <!-- Background -->
  <rect width="512" height="512" fill="#2D5F8B" rx="100"/>

  <!-- Tanum-style cat petroglyph - larger, filling the space -->
  <g transform="translate(256, 280)" fill="none" stroke="#FECA57" stroke-width="14" stroke-linecap="round" stroke-linejoin="round">

    <!-- Cat head outline - bigger, filling more space -->
    <path d="M-150,80
             Q-190,20 -165,-50
             L-120,-190
             Q-105,-210 -90,-190
             L-55,-70
             Q0,-100 55,-70
             L90,-190
             Q105,-210 120,-190
             L165,-50
             Q190,20 150,80
             Q75,150 0,150
             Q-75,150 -150,80
             Z"/>

    <!-- Left eye - simple dot/circle -->
    <circle cx="-65" cy="-20" r="26" fill="#FECA57"/>

    <!-- Right eye - simple dot/circle -->
    <circle cx="65" cy="-20" r="26" fill="#FECA57"/>

    <!-- Nose - simple triangle -->
    <path d="M0,25 L-22,70 L22,70 Z" fill="#FECA57"/>

    <!-- Whiskers - simple lines -->
    <line x1="-50" y1="65" x2="-130" y2="45"/>
    <line x1="-50" y1="80" x2="-140" y2="80"/>
    <line x1="50" y1="65" x2="130" y2="45"/>
    <line x1="50" y1="80" x2="140" y2="80"/>
  </g>
</svg>
